HIERARCHY
ROOT joint_Root
{
	OFFSET 0.0 0.0 0.0
	CHANNELS 6 Xposition Yposition Zposition Zrotation Xrotation Yrotation 
	JOINT Hips
	{
		OFFSET 4.5925 91.4895 -427.239
		CHANNELS 6 Xposition Yposition Zposition Zrotation Xrotation Yrotation 
		JOINT Spine
		{
			OFFSET 15.7357 0.0 0.0
			CHANNELS 6 Xposition Yposition Zposition Zrotation Xrotation Yrotation 
			JOINT Chest
			{
				OFFSET 8.98455 -0.406207 0.0
				CHANNELS 6 Xposition Yposition Zposition Zrotation Xrotation Yrotation 
				JOINT Neck
				{
					OFFSET 16.3773 0.0 0.0
					CHANNELS 6 Xposition Yposition Zposition Zrotation Xrotation Yrotation 
					JOINT Head
					{
						OFFSET 6.45672 0.0 0.0
						CHANNELS 6 Xposition Yposition Zposition Zrotation Xrotation Yrotation 
						End Site
						{
							OFFSET 0.0 0.0 0.0
						}
					}
				}
				JOINT Shoulder_L
				{
					OFFSET 12.9942 -0.242716 4.98039
					CHANNELS 6 Xposition Yposition Zposition Zrotation Xrotation Yrotation 
					JOINT UpperArm_L
					{
						OFFSET 5.34809 0.0 0.0
						CHANNELS 6 Xposition Yposition Zposition Zrotation Xrotation Yrotation 
						JOINT LowerArm_L
						{
							OFFSET 24.3286 1.87007e-05 0.0
							CHANNELS 6 Xposition Yposition Zposition Zrotation Xrotation Yrotation 
							JOINT Hand_L
							{
								OFFSET 22.2916 0.0 0.0
								CHANNELS 6 Xposition Yposition Zposition Zrotation Xrotation Yrotation 
								End Site
								{
									OFFSET 0.0 0.0 0.0
								}
							}
						}
					}
				}
				JOINT Shoulder_R
				{
					OFFSET 12.9945 -0.242716 -4.98039
					CHANNELS 6 Xposition Yposition Zposition Zrotation Xrotation Yrotation 
					JOINT UpperArm_R
					{
						OFFSET -5.34813 0.0 0.0
						CHANNELS 6 Xposition Yposition Zposition Zrotation Xrotation Yrotation 
						JOINT LowerArm_R
						{
							OFFSET -24.3289 0.000322201 0.0
							CHANNELS 6 Xposition Yposition Zposition Zrotation Xrotation Yrotation 
							JOINT Hand_R
							{
								OFFSET -22.2915 -0.000108084 0.0
								CHANNELS 6 Xposition Yposition Zposition Zrotation Xrotation Yrotation 
								End Site
								{
									OFFSET 0.0 0.0 0.0
								}
							}
						}
					}
				}
			}
		}
		JOINT UpperLeg_L
		{
			OFFSET -2.19248 -6.46944 0.0
			CHANNELS 6 Xposition Yposition Zposition Zrotation Xrotation Yrotation 
			JOINT LowerLeg_L
			{
				OFFSET 39.0811 0.0 -1.23785e-05
				CHANNELS 6 Xposition Yposition Zposition Zrotation Xrotation Yrotation 
				JOINT Foot_L
				{
					OFFSET 40.9854 0.0 -1.26872e-05
					CHANNELS 6 Xposition Yposition Zposition Zrotation Xrotation Yrotation 
					JOINT Toes_L
					{
						OFFSET 11.7543 0.0 0.0
						CHANNELS 6 Xposition Yposition Zposition Zrotation Xrotation Yrotation 
						End Site
						{
							OFFSET 0.0 0.0 0.0
						}
					}
				}
			}
		}
		JOINT UpperLeg_R
		{
			OFFSET -2.19251 6.46944 0.0
			CHANNELS 6 Xposition Yposition Zposition Zrotation Xrotation Yrotation 
			JOINT LowerLeg_R
			{
				OFFSET -39.0811 -0.00228153 -0.0401928
				CHANNELS 6 Xposition Yposition Zposition Zrotation Xrotation Yrotation 
				JOINT Foot_R
				{
					OFFSET -40.9854 0.0 0.0
					CHANNELS 6 Xposition Yposition Zposition Zrotation Xrotation Yrotation 
					JOINT Toes_R
					{
						OFFSET -11.7543 0.0 0.0
						CHANNELS 6 Xposition Yposition Zposition Zrotation Xrotation Yrotation 
						End Site
						{
							OFFSET 0.0 0.0 0.0
						}
					}
				}
			}
		}
	}
}
MOTION
Frames:	6
Frame Time:	0.0333333
0.000000 0.000000 0.000000 0.000000 0.000000 -0.000000 0.031913 91.556400 0.870285 89.506300 -3.343160 3.068160 15.735700 0.000005 -0.000001 85.035200 87.844600 -85.437100 8.984550 -0.406207 -0.000000 -3.472520 -0.333478 -0.814189 16.377300 -0.000001 -0.000001 6.122840 -3.191280 2.362430 6.456720 -0.000001 -0.000000 -0.071805 -2.159540 0.705144 12.994200 -0.242716 4.980390 -84.516400 -11.099500 -63.496000 5.348090 -0.000007 -0.000001 -52.823400 -50.156500 -105.051000 24.328600 0.000019 0.000005 25.708600 16.952800 -58.800900 22.291600 -0.000001 0.000005 23.314300 5.316290 -0.388772 12.994500 -0.242716 -4.980390 93.103500 -8.675540 -70.228900 -5.348130 -0.000001 -0.000004 -53.282000 -48.740600 -108.187000 -24.328900 0.000322 -0.000009 12.866500 9.900760 -53.032200 -22.291500 -0.000108 -0.000004 19.478400 5.547960 -8.608500 -2.192480 -6.469440 -0.000000 -176.373000 -13.329700 -3.876180 39.081100 -0.000007 -0.000012 -0.152528 0.313126 25.971500 40.985400 -0.000006 -0.000013 0.029607 4.469370 -68.889100 11.754300 -0.000000 0.000003 -0.000233 -0.002106 -16.656700 -2.192510 6.469440 -0.000001 175.686000 21.804200 178.016000 -39.081100 -0.002282 -0.040193 -0.013842 0.036714 25.043500 -40.985400 0.000008 0.000006 6.242450 14.649500 -70.732700 -11.754300 -0.000006 -0.000006 -0.000754 -0.011851 -17.055200
0.000000 0.000000 0.000000 0.000000 0.000000 -0.000000 0.100008 91.550600 0.779699 89.515300 -3.325400 3.148120 15.735700 0.000005 -0.000001 84.665300 87.693600 -85.048200 8.984550 -0.406207 -0.000000 -3.174520 -0.392131 -0.776756 16.377300 -0.000001 -0.000001 5.784040 -3.295060 2.400460 6.456720 -0.000001 -0.000000 -0.048852 -2.049750 0.710483 12.994200 -0.242716 4.980390 -84.936400 -10.377900 -63.808300 5.348090 -0.000007 -0.000001 -50.371100 -49.104600 -99.681700 24.328600 0.000019 0.000005 26.103800 13.352200 -64.766400 22.291600 -0.000001 0.000005 22.412700 5.304410 -0.050549 12.994500 -0.242716 -4.980390 92.828200 -8.078010 -70.630700 -5.348130 -0.000001 -0.000004 -50.678000 -47.877500 -103.910000 -24.328900 0.000322 -0.000009 13.053000 8.539870 -57.363800 -22.291500 -0.000108 -0.000004 18.822500 5.523490 -7.509990 -2.192480 -6.469440 -0.000000 -176.396000 -13.523400 -3.909970 39.081100 -0.000007 -0.000012 -0.150947 0.308512 26.071500 40.985400 -0.000006 -0.000013 0.134624 4.651340 -68.881400 11.754300 -0.000000 0.000003 -0.000223 -0.002029 -16.653900 -2.192510 6.469440 -0.000001 175.617000 21.780000 177.978000 -39.081100 -0.002282 -0.040193 -0.019598 0.048827 25.136300 -40.985400 0.000008 0.000006 6.095160 14.679000 -70.660500 -11.754300 -0.000006 -0.000006 -0.000743 -0.011692 -17.048800
0.000000 0.000000 0.000000 0.000000 0.000000 -0.000000 0.161854 91.534800 0.699144 89.545000 -3.232360 3.311480 15.735700 0.000005 -0.000001 84.487700 87.489500 -84.857800 8.984550 -0.406207 -0.000000 -2.769690 -0.448119 -0.751062 16.377300 -0.000001 -0.000001 5.335350 -3.498720 2.476900 6.456720 -0.000001 -0.000000 -0.207737 -2.112710 0.766574 12.994200 -0.242716 4.980390 -85.534600 -9.412050 -64.473900 5.348090 -0.000007 -0.000001 -47.273300 -47.494600 -92.890100 24.328600 0.000019 0.000005 25.856800 9.037860 -72.043600 22.291600 -0.000001 0.000005 21.296100 5.286990 0.434918 12.994500 -0.242716 -4.980390 92.485400 -7.211630 -70.926300 -5.348130 -0.000001 -0.000004 -47.133100 -46.364700 -97.935900 -24.328900 0.000322 -0.000009 12.876500 6.558900 -63.455900 -22.291500 -0.000108 -0.000004 18.328500 5.500470 -6.551650 -2.192480 -6.469440 -0.000000 -176.419000 -13.629900 -3.879560 39.081100 -0.000007 -0.000012 -0.150213 0.305109 26.212400 40.985400 -0.000006 -0.000013 0.235347 4.828910 -68.898300 11.754300 -0.000000 0.000003 -0.000228 -0.002065 -16.655200 -2.192510 6.469440 -0.000001 175.476000 21.767700 178.032000 -39.081100 -0.002282 -0.040193 -0.028920 0.068276 25.271100 -40.985400 0.000008 0.000006 5.852580 14.664100 -70.598200 -11.754300 -0.000006 -0.000006 -0.000638 -0.010118 -16.984800
0.000000 0.000000 0.000000 0.000000 0.000000 -0.000000 0.225898 91.507600 0.619391 89.568300 -3.071900 3.553290 15.735700 0.000005 -0.000001 84.265000 87.237500 -84.618200 8.984550 -0.406207 -0.000000 -2.270260 -0.521020 -0.716529 16.377300 -0.000001 -0.000001 4.650340 -3.682990 2.500060 6.456720 -0.000001 -0.000000 -0.321657 -2.191800 0.910058 12.994200 -0.242716 4.980390 -86.264300 -8.162950 -65.305400 5.348090 -0.000007 -0.000001 -43.582000 -45.007800 -84.976600 24.328600 0.000019 0.000005 25.624900 4.797090 -80.111500 22.291600 -0.000001 0.000005 20.348700 5.269630 0.908779 12.994500 -0.242716 -4.980390 91.997200 -5.886290 -71.220200 -5.348130 -0.000001 -0.000004 -42.471800 -44.037100 -90.611200 -24.328900 0.000322 -0.000009 12.563600 4.509320 -70.572500 -22.291500 -0.000108 -0.000004 18.263400 5.486950 -6.016630 -2.192480 -6.469440 -0.000000 -176.442000 -13.605500 -3.824540 39.081100 -0.000007 -0.000012 -0.147357 0.296404 26.434400 40.985400 -0.000006 -0.000013 0.330200 4.933780 -68.948600 11.754300 -0.000000 0.000003 -0.000211 -0.001936 -16.650500 -2.192510 6.469440 -0.000001 175.281000 21.945600 178.168000 -39.081100 -0.002282 -0.040193 -0.039324 0.089535 25.463000 -40.985400 0.000008 0.000006 5.650460 14.754600 -70.587200 -11.754300 -0.000006 -0.000006 -0.000633 -0.010044 -16.981800
0.000000 0.000000 0.000000 0.000000 0.000000 -0.000000 0.281624 91.453500 0.566027 89.572900 -2.937500 3.906150 15.735700 0.000005 -0.000001 84.415400 86.944400 -84.724500 8.984550 -0.406207 -0.000000 -1.685340 -0.569094 -0.626409 16.377300 -0.000001 -0.000001 3.918620 -3.730740 2.403090 6.456720 -0.000001 -0.000000 -0.496977 -2.318460 1.038550 12.994200 -0.242716 4.980390 -87.010600 -6.803080 -66.210500 5.348090 -0.000007 -0.000001 -39.719700 -41.105200 -76.000600 24.328600 0.000019 0.000005 24.757500 0.713264 -88.456400 22.291600 -0.000001 0.000005 19.753900 5.268220 0.946294 12.994500 -0.242716 -4.980390 91.456900 -4.350340 -71.464200 -5.348130 -0.000001 -0.000004 -37.416600 -40.377100 -82.530300 -24.328900 0.000322 -0.000009 11.900900 2.533500 -78.160000 -22.291500 -0.000108 -0.000004 18.195600 5.480310 -5.760560 -2.192480 -6.469440 -0.000000 -176.385000 -13.653700 -3.699460 39.081100 -0.000007 -0.000012 -0.149151 0.295177 26.807300 40.985400 -0.000006 -0.000013 0.434767 5.116300 -69.097300 11.754300 -0.000000 0.000003 -0.000233 -0.002108 -16.656700 -2.192510 6.469440 -0.000001 175.024000 22.075300 178.402000 -39.081100 -0.002282 -0.040193 -0.058015 0.127151 25.748200 -40.985400 0.000008 0.000006 5.263390 14.906200 -70.590700 -11.754300 -0.000006 -0.000006 -0.000507 -0.008142 -16.904500
0.000000 0.000000 0.000000 0.000000 0.000000 -0.000000 0.344597 91.404400 0.515596 89.585500 -2.924920 4.205940 15.735700 0.000005 -0.000001 84.688600 86.639800 -84.940100 8.984550 -0.406207 -0.000000 -1.075740 -0.602578 -0.508369 16.377300 -0.000001 -0.000001 3.061120 -3.588210 2.192120 6.456720 -0.000001 -0.000000 -0.534348 -2.272950 1.166890 12.994200 -0.242716 4.980390 -87.792300 -5.326640 -67.450300 5.348090 -0.000007 -0.000001 -35.139600 -35.887500 -65.749100 24.328600 0.000019 0.000005 23.470500 -2.714640 -96.227400 22.291600 -0.000001 0.000005 19.586200 5.280420 0.613304 12.994500 -0.242716 -4.980390 90.873000 -2.702310 -72.091900 -5.348130 -0.000001 -0.000004 -32.201200 -35.358000 -73.881700 -24.328900 0.000322 -0.000009 9.979590 0.766712 -85.662300 -22.291500 -0.000108 -0.000004 17.791700 5.473350 -5.494850 -2.192480 -6.469440 -0.000000 -176.347000 -13.802100 -3.570430 39.081100 -0.000007 -0.000012 -0.149674 0.292216 27.121900 40.985400 -0.000006 -0.000013 0.531658 5.253390 -69.239900 11.754300 -0.000000 0.000003 -0.000245 -0.002194 -16.659800 -2.192510 6.469440 -0.000001 174.793000 22.109400 178.560000 -39.081100 -0.002282 -0.040193 -0.076021 0.162477 26.024400 -40.985400 0.000008 0.000006 4.927480 15.029400 -70.588700 -11.754300 -0.000006 -0.000006 -0.000488 -0.007843 -16.892400
